<?xml version="1.0" encoding="UTF-8" standalone="no"?>
<!-- Created with Inkscape (http://www.inkscape.org/) -->

<svg
   xmlns:dc="http://purl.org/dc/elements/1.1/"
   xmlns:cc="http://creativecommons.org/ns#"
   xmlns:rdf="http://www.w3.org/1999/02/22-rdf-syntax-ns#"
   xmlns:svg="http://www.w3.org/2000/svg"
   xmlns="http://www.w3.org/2000/svg"
   xmlns:sodipodi="http://sodipodi.sourceforge.net/DTD/sodipodi-0.dtd"
   xmlns:inkscape="http://www.inkscape.org/namespaces/inkscape"
   width="90"
   height="70"
   id="svg2"
   version="1.1"
   inkscape:version="0.48.4 r9939"
   sodipodi:docname="context.svg">
  <defs
     id="defs4" />
  <sodipodi:namedview
     id="base"
     pagecolor="#ffffff"
     bordercolor="#666666"
     borderopacity="1.0"
     inkscape:pageopacity="0.0"
     inkscape:pageshadow="2"
     inkscape:zoom="5.6"
     inkscape:cx="37.640386"
     inkscape:cy="17.758817"
     inkscape:document-units="px"
     inkscape:current-layer="layer1"
     showgrid="false"
     inkscape:window-width="1276"
     inkscape:window-height="985"
     inkscape:window-x="1680"
     inkscape:window-y="18"
     inkscape:window-maximized="0" />
  <metadata
     id="metadata7">
    <rdf:RDF>
      <cc:Work
         rdf:about="">
        <dc:format>image/svg+xml</dc:format>
        <dc:type
           rdf:resource="http://purl.org/dc/dcmitype/StillImage" />
        <dc:title></dc:title>
      </cc:Work>
    </rdf:RDF>
  </metadata>
  <g
     inkscape:label="Layer 1"
     inkscape:groupmode="layer"
     id="layer1"
     transform="translate(0,-982.3622)">
    <rect
       style="fill:#ffffff;stroke:#000000;stroke-width:1.30061102;stroke-miterlimit:4;stroke-opacity:1;stroke-dasharray:2.60122204, 1.30061103;stroke-dashoffset:0"
       id="rect4554"
       width="85.435959"
       height="65.97168"
       x="1.4784502"
       y="984.01923" />
    <rect
       style="fill:#000000;stroke:#000000;stroke-width:1.12585664;stroke-opacity:1"
       id="rect3869-3"
       width="34.517727"
       height="1.1873696"
       x="38.221741"
       y="1012.0369" />
    <path
       sodipodi:type="arc"
       style="fill:#000000;stroke:#000000;stroke-opacity:1"
       id="path2989"
       sodipodi:cx="48.802994"
       sodipodi:cy="26.072012"
       sodipodi:rx="5.7452426"
       sodipodi:ry="5.7452426"
       d="m 54.548236,26.072012 a 5.7452426,5.7452426 0 1 1 -11.490485,0 5.7452426,5.7452426 0 1 1 11.490485,0 z"
       transform="matrix(0.6964552,0,0,0.6964552,2.9478778,994.47256)" />
    <rect
       style="fill:#000000;stroke:#000000;stroke-width:1.11203444;stroke-opacity:1"
       id="rect3869-3-3-3"
       width="33.287876"
       height="1.2011917"
       x="38.525753"
       y="1024.7793" />
    <rect
       style="fill:#000000;stroke:#000000;stroke-width:0.94256902;stroke-opacity:1"
       id="rect3869"
       width="20.95846"
       height="1.3706572"
       x="1016.7333"
       y="-55.481915"
       transform="matrix(0,1,-1,0,0,0)" />
    <path
       sodipodi:type="arc"
       style="fill:#000000;stroke:#000000;stroke-opacity:1"
       id="path2989-4"
       sodipodi:cx="48.802994"
       sodipodi:cy="26.072012"
       sodipodi:rx="5.7452426"
       sodipodi:ry="5.7452426"
       d="m 54.548236,26.072012 a 5.7452426,5.7452426 0 1 1 -11.490485,0 5.7452426,5.7452426 0 1 1 11.490485,0 z"
       transform="matrix(0.6964552,0,0,0.6964552,38.667094,994.47256)" />
    <rect
       style="fill:#ffffff;stroke:#000000;stroke-width:0.65139985;stroke-opacity:1"
       id="rect4100"
       width="16.226152"
       height="8.8391304"
       x="46.507629"
       y="1008.211" />
    <text
       xml:space="preserve"
       style="font-size:5.57164145px;font-style:normal;font-weight:normal;line-height:125%;letter-spacing:0px;word-spacing:0px;fill:#000000;fill-opacity:1;stroke:none;font-family:Sans"
       x="48.502235"
       y="1014.7471"
       id="text3839"
       sodipodi:linespacing="125%"><tspan
         sodipodi:role="line"
         id="tspan3841"
         x="48.502235"
         y="1014.7471">infix</tspan></text>
    <rect
       style="fill:#ffffff;stroke:#000000;stroke-width:0.69645518;stroke-opacity:1"
       id="rect4102"
       width="3.6935115"
       height="3.6935115"
       x="52.828312"
       y="1023.5649" />
    <rect
       style="fill:#000000;stroke:#000000;stroke-width:0.87060738;stroke-opacity:1"
       id="rect3869-4-0"
       width="16.988493"
       height="1.442619"
       x="-54.09845"
       y="-1037.6158"
       transform="scale(-1,-1)" />
    <path
       sodipodi:type="arc"
       style="fill:#ffffff;stroke:#000000;stroke-opacity:1"
       id="path2989-4-1-5"
       sodipodi:cx="48.802994"
       sodipodi:cy="26.072012"
       sodipodi:rx="5.7452426"
       sodipodi:ry="5.7452426"
       d="m 54.548236,26.072012 a 5.7452426,5.7452426 0 1 1 -11.490485,0 5.7452426,5.7452426 0 1 1 11.490485,0 z"
       transform="matrix(0.6964552,0,0,0.6964552,2.7850515,1018.9744)" />
    <path
       sodipodi:type="arc"
       style="fill:#000000;stroke:#000000;stroke-opacity:1"
       id="path2989-43"
       sodipodi:cx="48.802994"
       sodipodi:cy="26.072012"
       sodipodi:rx="5.7452426"
       sodipodi:ry="5.7452426"
       d="m 54.548236,26.072012 a 5.7452426,5.7452426 0 1 1 -11.490485,0 5.7452426,5.7452426 0 1 1 11.490485,0 z"
       transform="matrix(0.6964552,0,0,0.6964552,2.8856948,1007.2218)" />
    <path
       sodipodi:type="arc"
       style="fill:#000000;stroke:#000000;stroke-opacity:1"
       id="path2989-4-7"
       sodipodi:cx="48.802994"
       sodipodi:cy="26.072012"
       sodipodi:rx="5.7452426"
       sodipodi:ry="5.7452426"
       d="m 54.548236,26.072012 a 5.7452426,5.7452426 0 1 1 -11.490485,0 5.7452426,5.7452426 0 1 1 11.490485,0 z"
       transform="matrix(0.6964552,0,0,0.6964552,38.604911,1007.2218)" />
    <text
       xml:space="preserve"
       style="font-size:40px;font-style:normal;font-weight:normal;line-height:125%;letter-spacing:0px;word-spacing:0px;fill:#000000;fill-opacity:1;stroke:none;font-family:Sans"
       x="3.5714278"
       y="994.14795"
       id="text4556"
       sodipodi:linespacing="125%"><tspan
         sodipodi:role="line"
         id="tspan4558"
         x="3.5714278"
         y="994.14795"
         style="font-size:10px">Context</tspan></text>
  </g>
</svg>
