<?xml version="1.0" encoding="UTF-8" standalone="no"?>
<!-- Created with Inkscape (http://www.inkscape.org/) -->

<svg
   xmlns:dc="http://purl.org/dc/elements/1.1/"
   xmlns:cc="http://creativecommons.org/ns#"
   xmlns:rdf="http://www.w3.org/1999/02/22-rdf-syntax-ns#"
   xmlns:svg="http://www.w3.org/2000/svg"
   xmlns="http://www.w3.org/2000/svg"
   xmlns:sodipodi="http://sodipodi.sourceforge.net/DTD/sodipodi-0.dtd"
   xmlns:inkscape="http://www.inkscape.org/namespaces/inkscape"
   width="406.9375"
   height="329.09375"
   id="svg2"
   version="1.1"
   inkscape:version="0.48.4 r9939"
   sodipodi:docname="context.svg"
   inkscape:export-filename="/home/agoebel/div3/image/context.png"
   inkscape:export-xdpi="90"
   inkscape:export-ydpi="90">
  <defs
     id="defs4" />
  <sodipodi:namedview
     id="base"
     pagecolor="#ffffff"
     bordercolor="#666666"
     borderopacity="1.0"
     inkscape:pageopacity="0.0"
     inkscape:pageshadow="2"
     inkscape:zoom="0.7"
     inkscape:cx="212.55951"
     inkscape:cy="61.642975"
     inkscape:document-units="px"
     inkscape:current-layer="layer1"
     showgrid="false"
     inkscape:window-width="1276"
     inkscape:window-height="931"
     inkscape:window-x="1680"
     inkscape:window-y="72"
     inkscape:window-maximized="0"
     fit-margin-top="30"
     fit-margin-left="30"
     fit-margin-right="30"
     fit-margin-bottom="30" />
  <metadata
     id="metadata7">
    <rdf:RDF>
      <cc:Work
         rdf:about="">
        <dc:format>image/svg+xml</dc:format>
        <dc:type
           rdf:resource="http://purl.org/dc/dcmitype/StillImage" />
        <dc:title></dc:title>
      </cc:Work>
    </rdf:RDF>
  </metadata>
  <g
     inkscape:label="Layer 1"
     inkscape:groupmode="layer"
     id="layer1"
     transform="translate(159.28125,-852.46875)">
    <rect
       style="fill:#ffffff;stroke:#000000;stroke-width:5.20244408;stroke-miterlimit:4;stroke-opacity:1;stroke-dasharray:10.40488816, 5.20244412;stroke-dashoffset:0"
       id="rect4554"
       width="341.74384"
       height="263.88672"
       x="-126.67549"
       y="885.06171" />
    <rect
       style="fill:#000000;stroke:#000000;stroke-width:4.50342655;stroke-opacity:1"
       id="rect3869-3"
       width="138.07091"
       height="4.7494783"
       x="20.297674"
       y="997.13251" />
    <path
       sodipodi:type="arc"
       style="fill:#000000;stroke:#000000;stroke-opacity:1"
       id="path2989"
       sodipodi:cx="48.802994"
       sodipodi:cy="26.072012"
       sodipodi:rx="5.7452426"
       sodipodi:ry="5.7452426"
       d="m 54.548236,26.072012 c 0,3.17301 -2.572232,5.745243 -5.745242,5.745243 -3.17301,0 -5.745243,-2.572233 -5.745243,-5.745243 0,-3.17301 2.572233,-5.745243 5.745243,-5.745243 3.17301,0 5.745242,2.572233 5.745242,5.745243 z"
       transform="matrix(2.7858208,0,0,2.7858208,-120.79778,926.87504)" />
    <rect
       style="fill:#000000;stroke:#000000;stroke-width:4.44813776;stroke-opacity:1"
       id="rect3869-3-3-3"
       width="133.1515"
       height="4.8047667"
       x="21.513723"
       y="1048.1021" />
    <rect
       style="fill:#000000;stroke:#000000;stroke-width:3.77027607;stroke-opacity:1"
       id="rect3869"
       width="83.833839"
       height="5.4826288"
       x="1015.9179"
       y="-89.338371"
       transform="matrix(0,1,-1,0,0,0)" />
    <path
       sodipodi:type="arc"
       style="fill:#000000;stroke:#000000;stroke-opacity:1"
       id="path2989-4"
       sodipodi:cx="48.802994"
       sodipodi:cy="26.072012"
       sodipodi:rx="5.7452426"
       sodipodi:ry="5.7452426"
       d="m 54.548236,26.072012 c 0,3.17301 -2.572232,5.745243 -5.745242,5.745243 -3.17301,0 -5.745243,-2.572233 -5.745243,-5.745243 0,-3.17301 2.572233,-5.745243 5.745243,-5.745243 3.17301,0 5.745242,2.572233 5.745242,5.745243 z"
       transform="matrix(2.7858208,0,0,2.7858208,22.079087,926.87504)" />
    <rect
       style="fill:#ffffff;stroke:#000000;stroke-width:2.6055994;stroke-opacity:1"
       id="rect4100"
       width="64.90461"
       height="35.356522"
       x="53.441227"
       y="981.8288" />
    <text
       xml:space="preserve"
       style="font-size:22.28656578px;font-style:normal;font-weight:normal;line-height:125%;letter-spacing:0px;word-spacing:0px;fill:#000000;fill-opacity:1;stroke:none;font-family:Sans"
       x="61.419651"
       y="1007.9731"
       id="text3839"
       sodipodi:linespacing="125%"><tspan
         sodipodi:role="line"
         id="tspan3841"
         x="61.419651"
         y="1007.9731">infix</tspan></text>
    <rect
       style="fill:#ffffff;stroke:#000000;stroke-width:2.78582072;stroke-opacity:1"
       id="rect4102"
       width="14.774046"
       height="14.774046"
       x="78.723961"
       y="1043.2444" />
    <rect
       style="fill:#000000;stroke:#000000;stroke-width:3.4824295;stroke-opacity:1"
       id="rect3869-4-0"
       width="67.953972"
       height="5.7704759"
       x="-83.804512"
       y="-1099.4482"
       transform="scale(-1,-1)" />
    <path
       sodipodi:type="arc"
       style="fill:#ffffff;stroke:#000000;stroke-opacity:1"
       id="path2989-4-1-5"
       sodipodi:cx="48.802994"
       sodipodi:cy="26.072012"
       sodipodi:rx="5.7452426"
       sodipodi:ry="5.7452426"
       d="m 54.548236,26.072012 c 0,3.17301 -2.572232,5.745243 -5.745242,5.745243 -3.17301,0 -5.745243,-2.572233 -5.745243,-5.745243 0,-3.17301 2.572233,-5.745243 5.745243,-5.745243 3.17301,0 5.745242,2.572233 5.745242,5.745243 z"
       transform="matrix(2.7858208,0,0,2.7858208,-121.44908,1024.8824)" />
    <path
       sodipodi:type="arc"
       style="fill:#000000;stroke:#000000;stroke-opacity:1"
       id="path2989-43"
       sodipodi:cx="48.802994"
       sodipodi:cy="26.072012"
       sodipodi:rx="5.7452426"
       sodipodi:ry="5.7452426"
       d="m 54.548236,26.072012 c 0,3.17301 -2.572232,5.745243 -5.745242,5.745243 -3.17301,0 -5.745243,-2.572233 -5.745243,-5.745243 0,-3.17301 2.572233,-5.745243 5.745243,-5.745243 3.17301,0 5.745242,2.572233 5.745242,5.745243 z"
       transform="matrix(2.7858208,0,0,2.7858208,-121.04651,977.872)" />
    <path
       sodipodi:type="arc"
       style="fill:#000000;stroke:#000000;stroke-opacity:1"
       id="path2989-4-7"
       sodipodi:cx="48.802994"
       sodipodi:cy="26.072012"
       sodipodi:rx="5.7452426"
       sodipodi:ry="5.7452426"
       d="m 54.548236,26.072012 c 0,3.17301 -2.572232,5.745243 -5.745242,5.745243 -3.17301,0 -5.745243,-2.572233 -5.745243,-5.745243 0,-3.17301 2.572233,-5.745243 5.745243,-5.745243 3.17301,0 5.745242,2.572233 5.745242,5.745243 z"
       transform="matrix(2.7858208,0,0,2.7858208,21.830355,977.872)" />
    <text
       xml:space="preserve"
       style="font-size:160px;font-style:normal;font-weight:normal;line-height:125%;letter-spacing:0px;word-spacing:0px;fill:#000000;fill-opacity:1;stroke:none;font-family:Sans"
       x="-118.30358"
       y="925.5766"
       id="text4556"
       sodipodi:linespacing="125%"><tspan
         sodipodi:role="line"
         id="tspan4558"
         x="-118.30358"
         y="925.5766"
         style="font-size:40px">Context</tspan></text>
  </g>
</svg>
