<?xml version="1.0" encoding="UTF-8" standalone="no"?>
<!-- Created with Inkscape (http://www.inkscape.org/) -->

<svg
   xmlns:dc="http://purl.org/dc/elements/1.1/"
   xmlns:cc="http://creativecommons.org/ns#"
   xmlns:rdf="http://www.w3.org/1999/02/22-rdf-syntax-ns#"
   xmlns:svg="http://www.w3.org/2000/svg"
   xmlns="http://www.w3.org/2000/svg"
   xmlns:sodipodi="http://sodipodi.sourceforge.net/DTD/sodipodi-0.dtd"
   xmlns:inkscape="http://www.inkscape.org/namespaces/inkscape"
   width="315.14868"
   height="189.82462"
   id="svg2"
   version="1.1"
   inkscape:version="0.48.4 r9939"
   sodipodi:docname="fnN.svg"
   inkscape:export-filename="/home/agoebel/div3/image/fnN.png"
   inkscape:export-xdpi="90"
   inkscape:export-ydpi="90">
  <defs
     id="defs4" />
  <sodipodi:namedview
     id="base"
     pagecolor="#ffffff"
     bordercolor="#666666"
     borderopacity="1.0"
     inkscape:pageopacity="0.0"
     inkscape:pageshadow="2"
     inkscape:zoom="1.4"
     inkscape:cx="345.43704"
     inkscape:cy="128.44613"
     inkscape:document-units="px"
     inkscape:current-layer="layer1"
     showgrid="false"
     inkscape:window-width="1276"
     inkscape:window-height="859"
     inkscape:window-x="1680"
     inkscape:window-y="144"
     inkscape:window-maximized="0"
     fit-margin-top="30"
     fit-margin-left="30"
     fit-margin-right="30"
     fit-margin-bottom="30" />
  <metadata
     id="metadata7">
    <rdf:RDF>
      <cc:Work
         rdf:about="">
        <dc:format>image/svg+xml</dc:format>
        <dc:type
           rdf:resource="http://purl.org/dc/dcmitype/StillImage" />
        <dc:title></dc:title>
      </cc:Work>
    </rdf:RDF>
  </metadata>
  <g
     inkscape:label="Layer 1"
     inkscape:groupmode="layer"
     id="layer1"
     transform="translate(112.53632,-932.4375)">
    <rect
       style="fill:#000000;stroke:#000000;stroke-width:4;stroke-opacity:1"
       id="rect3869-3"
       width="55.714287"
       height="9.2857141"
       x="-51.428574"
       y="991.229" />
    <path
       sodipodi:type="arc"
       style="fill:#ffffff;stroke:#000000;stroke-opacity:1"
       id="path2989"
       sodipodi:cx="48.802994"
       sodipodi:cy="26.072012"
       sodipodi:rx="5.7452426"
       sodipodi:ry="5.7452426"
       d="m 54.548236,26.072012 c 0,3.17301 -2.572232,5.745243 -5.745242,5.745243 -3.17301,0 -5.745243,-2.572233 -5.745243,-5.745243 0,-3.17301 2.572233,-5.745243 5.745243,-5.745243 3.17301,0 5.745242,2.572233 5.745242,5.745243 z"
       transform="matrix(4,0,0,4,-252.78632,891.58355)" />
    <rect
       style="fill:#000000;stroke:#000000;stroke-width:4;stroke-opacity:1"
       id="rect3869"
       width="55.714287"
       height="9.2857141"
       x="1018.7283"
       y="-49.642853"
       transform="matrix(0,1,-1,0,0,0)" />
    <rect
       style="fill:#000000;stroke:#000000;stroke-width:4;stroke-opacity:1"
       id="rect3869-3-3"
       width="55.714287"
       height="9.2857141"
       x="88.571442"
       y="991.229" />
    <path
       sodipodi:type="arc"
       style="fill:#ffffff;stroke:#000000;stroke-opacity:1"
       id="path2989-4"
       sodipodi:cx="48.802994"
       sodipodi:cy="26.072012"
       sodipodi:rx="5.7452426"
       sodipodi:ry="5.7452426"
       d="m 54.548236,26.072012 c 0,3.17301 -2.572232,5.745243 -5.745242,5.745243 -3.17301,0 -5.745243,-2.572233 -5.745243,-5.745243 0,-3.17301 2.572233,-5.745243 5.745243,-5.745243 3.17301,0 5.745242,2.572233 5.745242,5.745243 z"
       transform="matrix(4,0,0,4,-47.637635,891.58355)" />
    <rect
       style="fill:#ffffff;stroke:#000000;stroke-width:4;stroke-opacity:1"
       id="rect3837"
       width="101.70499"
       height="62.857143"
       x="-5.8524928"
       y="964.44336" />
    <text
       xml:space="preserve"
       style="font-size:40px;font-style:normal;font-weight:normal;line-height:125%;letter-spacing:0px;word-spacing:0px;fill:#000000;fill-opacity:1;stroke:none;font-family:Sans"
       x="26.533203"
       y="1011.0669"
       id="text3839"
       sodipodi:linespacing="125%"><tspan
         sodipodi:role="line"
         id="tspan3841"
         x="26.533203"
         y="1011.0669">fn</tspan></text>
    <path
       sodipodi:type="arc"
       style="fill:#ffffff;stroke:#000000;stroke-opacity:1"
       id="path2989-4-1"
       sodipodi:cx="48.802994"
       sodipodi:cy="26.072012"
       sodipodi:rx="5.7452426"
       sodipodi:ry="5.7452426"
       d="m 54.548236,26.072012 c 0,3.17301 -2.572232,5.745243 -5.745242,5.745243 -3.17301,0 -5.745243,-2.572233 -5.745243,-5.745243 0,-3.17301 2.572233,-5.745243 5.745243,-5.745243 3.17301,0 5.745242,2.572233 5.745242,5.745243 z"
       transform="matrix(4,0,0,4,-150.21197,963.01211)" />
  </g>
</svg>
